<?xml version="1.0" encoding="utf-8"?>
<!-- Generator: Adobe Illustrator 22.0.1, SVG Export Plug-In . SVG Version: 6.00 Build 0)  -->
<svg version="1.1" id="Layer_1" xmlns="http://www.w3.org/2000/svg" xmlns:xlink="http://www.w3.org/1999/xlink" x="0px" y="0px"
	 viewBox="0 0 19.5 23.7" style="enable-background:new 0 0 19.5 23.7;" xml:space="preserve">
<style type="text/css">
	.st0{fill:url(#SVGID_1_);}
</style>
<linearGradient id="SVGID_1_" gradientUnits="userSpaceOnUse" x1="0" y1="11.8268" x2="19.4559" y2="11.8268">
	<stop  offset="0" style="stop-color:#FD3936"/>
	<stop  offset="0.5051" style="stop-color:#7D569D"/>
	<stop  offset="1" style="stop-color:#1B6BE8"/>
</linearGradient>
<path class="st0" d="M0.7,0h12.2c2.2,2.4,4.4,4.7,6.5,7.1v16.6c-6.5,0-13,0-19.5,0V0H0.7L0.7,0z M18,8h-6.1V1.5H1.5v20.7H18V8L18,8z
	 M13.4,2.7v3.8h3.5L13.4,2.7L13.4,2.7z M3.2,17.5H12V19H3v-1.5H3.2L3.2,17.5z M3.2,4.9h5.6v1.5H3V4.9H3.2L3.2,4.9z M3.2,11.2h10.7
	v1.5H3v-1.5H3.2L3.2,11.2z"/>
</svg>
