<?xml version="1.0" encoding="utf-8"?>
<!-- Generator: Adobe Illustrator 22.0.1, SVG Export Plug-In . SVG Version: 6.00 Build 0)  -->
<svg version="1.1" id="Layer_1" xmlns="http://www.w3.org/2000/svg" xmlns:xlink="http://www.w3.org/1999/xlink" x="0px" y="0px"
	 viewBox="0 0 46.9 32.3" style="enable-background:new 0 0 46.9 32.3;" xml:space="preserve">
<style type="text/css">
	.st0{fill:url(#SVGID_1_);}
</style>
<linearGradient id="SVGID_1_" gradientUnits="userSpaceOnUse" x1="0" y1="16.1269" x2="46.8516" y2="16.1269">
	<stop  offset="0" style="stop-color:#FD3936"/>
	<stop  offset="0.5051" style="stop-color:#7D569D"/>
	<stop  offset="1" style="stop-color:#1B6BE8"/>
</linearGradient>
<path class="st0" d="M18.1,20.8h7.8l0-0.4H14.6l0-1.5l0.3-0.2c0.4-0.3,0.8-0.6,1.1-0.9c0.3-0.3,0.5-0.6,0.7-0.9
	c0.1-0.3,0.2-0.6,0.3-0.9c0.1-0.3,0.1-0.6,0.1-1l-0.7,0c-0.1,0.8-0.5,1.4-1,1.9c-0.5,0.5-1.2,0.9-1.9,1.3c-0.7,0.4-1.5,0.9-2.1,1.6
	c-0.7,0.7-1.2,1.5-1.6,2.8l-0.1,0.3c-3,1.8-5.9,3.7-8.9,5.6L0,27.2L8.4,22c0.5-1.4,1.1-2.4,1.9-3.1c0.8-0.8,1.6-1.3,2.4-1.8l0,0
	c1.2-0.7,2.2-1.3,2.2-2.7l0-0.7l3.6,0l0,0.7c0,0.7,0,1.3-0.1,1.8c-0.1,0.5-0.2,1-0.5,1.5c-0.2,0.3-0.3,0.6-0.6,0.9
	c-0.1,0.2-0.3,0.3-0.4,0.5h10.4c0,0.6,0,1.3,0,1.9h2.4v0.7c0,1.5,0,1.9,0,1.9c0,0.2,0,0.5,0,0.8h-1.2v2h-1.9V28H21
	c-1.1,0-1.9,0.3-2.9,0.5c-0.8,0.2-1.7,0.5-2.8,0.6c-1,0.1-2.3,0.1-3.8-0.1L7,32.3L6.1,31l5.1-3.5l0.3,0c1.5,0.3,2.7,0.3,3.7,0.1
	c1-0.1,1.8-0.3,2.6-0.6l0,0c1-0.3,2-0.6,3.3-0.6l0,0h4.1v-0.4h-3.5v-1.5h5.4v-0.5H20v-1.5l8.3,0l0-0.4h-1.6v0h-8.8v-1.5H18.1
	L18.1,20.8z M28.8,11.4h-7.8l0,0.4h11.3l0,1.5l-0.3,0.2c-0.4,0.3-0.8,0.6-1.1,0.9c-0.3,0.3-0.5,0.6-0.7,0.9
	c-0.1,0.3-0.2,0.6-0.3,0.9c-0.1,0.3-0.1,0.6-0.1,1l0.7,0c0.3-1.7,1.5-2.4,2.8-3.3c0.7-0.4,1.5-0.9,2.1-1.6c0.7-0.7,1.2-1.5,1.6-2.8
	l0.1-0.3c3-1.9,5.9-3.7,8.9-5.6L46.9,5l-8.4,5.3c-0.5,1.4-1.1,2.4-1.9,3.1c-0.8,0.8-1.6,1.3-2.4,1.8c-0.6,0.4-1.2,0.7-1.6,1.1
	c-0.4,0.4-0.6,0.9-0.6,1.6l0,0.7l-3.6,0l0-0.7c0-0.7,0-1.3,0.1-1.8c0.1-0.5,0.2-1,0.5-1.5c0.2-0.3,0.3-0.6,0.6-0.9
	c0.1-0.2,0.3-0.3,0.4-0.5H19.4c0-0.6,0-1.3,0-1.9h-2.4v-0.7c0-1.5,0-1.9,0-1.9c0-0.2,0-0.5,0-0.8h1.2v-2h1.9V4.2h5.7
	c0.5,0,1-0.1,1.4-0.2c0.5-0.1,0.9-0.2,1.4-0.4c0.8-0.2,1.7-0.5,2.8-0.6c1-0.1,2.3-0.1,3.8,0.1L39.9,0l0.8,1.2
	c-1.7,1.2-3.4,2.3-5.1,3.5l-0.3,0c-3-0.5-4.7,0-6.2,0.4c-0.5,0.1-1,0.3-1.6,0.4c-0.5,0.1-1.1,0.2-1.8,0.2l0,0h-4.1v0.4h3.5v1.5h-5.4
	V8h7.1v1.5h-8.3l0,0.4h1.6v0h8.8v1.5H28.8L28.8,11.4z"/>
</svg>
