<?xml version="1.0" encoding="utf-8"?>
<!-- Generator: Adobe Illustrator 22.0.1, SVG Export Plug-In . SVG Version: 6.00 Build 0)  -->
<svg version="1.1" id="Layer_1" xmlns="http://www.w3.org/2000/svg" xmlns:xlink="http://www.w3.org/1999/xlink" x="0px" y="0px"
	 viewBox="0 0 24.6 29.2" style="enable-background:new 0 0 24.6 29.2;" xml:space="preserve">
<style type="text/css">
	.st0{fill:url(#SVGID_1_);}
	.st1{fill:url(#SVGID_2_);}
	.st2{fill:url(#SVGID_3_);}
</style>
<g>
	<g>
		<g>
			<g>
				<linearGradient id="SVGID_1_" gradientUnits="userSpaceOnUse" x1="5.4961" y1="16.6932" x2="19.0544" y2="10.3709">
					<stop  offset="0" style="stop-color:#FD3936"/>
					<stop  offset="0.5051" style="stop-color:#7D569D"/>
					<stop  offset="1" style="stop-color:#1B6BE8"/>
				</linearGradient>
				<path class="st0" d="M12.3,6.1c-4.1,0-7.5,3.4-7.5,7.5c0,4.1,3.4,7.5,7.5,7.5c4.1,0,7.5-3.4,7.5-7.5C19.8,9.4,16.4,6.1,12.3,6.1
					z M12.3,19.3c-3.2,0-5.8-2.6-5.8-5.8s2.6-5.8,5.8-5.8c3.2,0,5.8,2.6,5.8,5.8S15.5,19.3,12.3,19.3z"/>
			</g>
		</g>
		<g>
			<linearGradient id="SVGID_2_" gradientUnits="userSpaceOnUse" x1="9.6543" y1="15.274" x2="15.4663" y2="12.5638">
				<stop  offset="0" style="stop-color:#FD3936"/>
				<stop  offset="0.5051" style="stop-color:#7D569D"/>
				<stop  offset="1" style="stop-color:#1B6BE8"/>
			</linearGradient>
			<polygon class="st1" points="11.4,14 10.4,13 9.1,14.2 11.4,16.4 15.4,12.4 14.2,11.2 			"/>
		</g>
		<g>
			<g>
				<linearGradient id="SVGID_3_" gradientUnits="userSpaceOnUse" x1="-1.5364" y1="19.3146" x2="25.4528" y2="6.7294">
					<stop  offset="0" style="stop-color:#FD3936"/>
					<stop  offset="0.5051" style="stop-color:#7D569D"/>
					<stop  offset="1" style="stop-color:#1B6BE8"/>
				</linearGradient>
				<path class="st2" d="M23.7,4.8c-2.2,0-3.9-1.8-3.9-3.9V0h-15v0.9C4.8,3,3,4.8,0.9,4.8H0v17.8l12.3,6.6l12.3-6.6V4.8H23.7z
					 M12.3,27.3L1.7,21.6V6.4c2.4-0.4,4.4-2.3,4.7-4.7h11.7c0.4,2.4,2.3,4.4,4.7,4.7v15.1h0L12.3,27.3z"/>
			</g>
		</g>
	</g>
</g>
</svg>
