<?xml version="1.0" encoding="utf-8"?>
<!-- Generator: Adobe Illustrator 22.0.1, SVG Export Plug-In . SVG Version: 6.00 Build 0)  -->
<svg version="1.1" id="Layer_1" xmlns="http://www.w3.org/2000/svg" xmlns:xlink="http://www.w3.org/1999/xlink" x="0px" y="0px"
	 viewBox="0 0 26.6 27" style="enable-background:new 0 0 26.6 27;" xml:space="preserve">
<style type="text/css">
	.st0{fill:url(#SVGID_1_);}
</style>
<linearGradient id="SVGID_1_" gradientUnits="userSpaceOnUse" x1="0" y1="13.4854" x2="26.5606" y2="13.4854">
	<stop  offset="0" style="stop-color:#FD3936"/>
	<stop  offset="0.5051" style="stop-color:#7D569D"/>
	<stop  offset="1" style="stop-color:#1B6BE8"/>
</linearGradient>
<path class="st0" d="M12.3,14V5.3h1.5v8.9h-1.5V14L12.3,14z M25.8,3.5h-1v12.2h1.6v1.5h-6l0.2,0.6H24v1.5h-2.7l2.7,7.1L22.6,27
	l-2.9-7.7H5.9L3,27l-1.4-0.5l2.7-7.1H2.6v-1.5h2.4l0.2-0.6h-5v-1.5h1.6V3.5H0V0h26.6v3.5H25.8L25.8,3.5z M19.1,17.8l-0.2-0.6H6.7
	l-0.2,0.6H19.1L19.1,17.8z M3.2,15.8h20.1V3.6H3.2V15.8L3.2,15.8z M1.5,2h23.6V1.5H1.5V2L1.5,2z M7,14V8.1h1.5v6.1H7V14L7,14z
	 M17.6,14V8.1H19v6.1h-1.5V14L17.6,14z"/>
</svg>
