<?xml version="1.0" encoding="utf-8"?>
<!-- Generator: Adobe Illustrator 22.0.1, SVG Export Plug-In . SVG Version: 6.00 Build 0)  -->
<svg version="1.1" id="Layer_1" xmlns="http://www.w3.org/2000/svg" xmlns:xlink="http://www.w3.org/1999/xlink" x="0px" y="0px"
	 viewBox="0 0 18.6 15.9" style="enable-background:new 0 0 18.6 15.9;" xml:space="preserve">
<style type="text/css">
	.st0{fill:url(#SVGID_1_);}
</style>
<linearGradient id="SVGID_1_" gradientUnits="userSpaceOnUse" x1="0" y1="7.9494" x2="18.6015" y2="7.9494">
	<stop  offset="0" style="stop-color:#FD3936"/>
	<stop  offset="0.5051" style="stop-color:#7D569D"/>
	<stop  offset="1" style="stop-color:#1B6BE8"/>
</linearGradient>
<path class="st0" d="M13.3,6.2v1.2h1V3.6h-0.7H13H5.1H4.4v3.8h1V6.1h1v0.1v1.2h6V6.1h1V6.2L13.3,6.2z M0.5,2.6h4.6V0h8.4v2.6h5.1
	v13.3H0V2.6H0.5L0.5,2.6z M2.1,13v0.9H1v1h16.6V3.6h-2.4v4.7h-2v0.7h-1V8.4h-6v0.7h-1V8.4h-2V3.6H1v9.2h1.1V13L2.1,13z M17.5,13v0.9
	h-1.8v-1h1.8V13L17.5,13z M13.6,13v0.9h-1.8v-1h1.8V13L13.6,13z M9.8,13v0.9H8v-1h1.8V13L9.8,13z M6,13v0.9H4.2v-1H6V13L6,13z
	 M6.1,2.6h6.4V1H6.1V2.6L6.1,2.6z"/>
</svg>
