<?xml version="1.0" encoding="utf-8"?>
<!-- Generator: Adobe Illustrator 22.0.1, SVG Export Plug-In . SVG Version: 6.00 Build 0)  -->
<svg version="1.1" id="Layer_1" xmlns="http://www.w3.org/2000/svg" xmlns:xlink="http://www.w3.org/1999/xlink" x="0px" y="0px"
	 viewBox="0 0 17.6 21.8" style="enable-background:new 0 0 17.6 21.8;" xml:space="preserve">
<style type="text/css">
	.st0{fill:url(#SVGID_1_);}
</style>
<linearGradient id="SVGID_1_" gradientUnits="userSpaceOnUse" x1="0" y1="10.9215" x2="17.627" y2="10.9215">
	<stop  offset="0" style="stop-color:#FD3936"/>
	<stop  offset="0.5051" style="stop-color:#7D569D"/>
	<stop  offset="1" style="stop-color:#1B6BE8"/>
</linearGradient>
<path class="st0" d="M10.2,16.9c0,0.1-0.1,0.2-0.1,0.3c-0.2,0.5-0.5,0.8-0.8,1.1c-0.1,0.1-0.2,0.2-0.3,0.3c-0.1,0.1-0.2,0.1-0.3,0.2
	c0,0.2-0.1,0.3-0.1,0.5c0,0.2-0.1,0.4-0.2,0.6c-0.1,0.4-0.4,0.7-0.7,1c-0.3,0.3-0.7,0.5-1.2,0.7c-0.3,0.1-0.7,0.2-1.1,0.3
	c-0.4,0-0.8,0-1.2,0c-0.4,0-0.8-0.1-1.2-0.3C2.7,21.4,2.4,21.2,2,21c-0.5-0.3-1-0.8-1.4-1.4c-0.3-0.5-0.5-1.1-0.6-1.8l0-0.2l1.5-0.2
	l0,0.2c0.1,0.5,0.2,0.9,0.4,1.2c0.2,0.4,0.5,0.7,0.9,0.9c0.2,0.2,0.5,0.3,0.8,0.4c0.3,0.1,0.6,0.2,0.9,0.2c0.3,0,0.6,0,0.9,0
	c0.3,0,0.5-0.1,0.8-0.2c0.2-0.1,0.4-0.2,0.6-0.3c0.1-0.1,0.2-0.3,0.3-0.4l0-0.1c-0.2,0-0.4,0-0.6,0c-0.3,0-0.5-0.1-0.8-0.2
	c-0.3-0.1-0.5-0.3-0.8-0.5c-0.2-0.2-0.4-0.4-0.6-0.7l0-0.1l0-0.1c-0.1-0.4-0.1-0.8,0-1.2c0.1-0.4,0.3-0.7,0.6-0.9
	c0.2-0.2,0.5-0.3,0.7-0.4c0.3-0.1,0.6-0.1,0.9,0c0.3,0,0.6,0.1,0.8,0.3c0.3,0.1,0.5,0.3,0.7,0.5c0.1,0.2,0.3,0.3,0.4,0.5
	c0.1,0.1,0.1,0.2,0.1,0.3c0.1-0.1,0.2-0.3,0.2-0.5c0.1-0.2,0.2-0.5,0.2-0.7c-0.1-0.2-0.3-0.4-0.4-0.6c-1-1.4-2-3.1-3.1-4.7L4,8l0,0
	C3.7,7.4,3.4,6.7,3.3,6.1c-0.1-0.7-0.1-1.3,0-1.9c0.2-0.7,0.5-1.4,1-2c0.5-0.6,1.2-1.2,2-1.8L7,0l3.6,5.4L9.9,5.8
	C9.6,6.1,9.2,6.3,9,6.5C8.7,6.7,8.5,6.9,8.4,7.1C8.3,7.3,8.2,7.4,8.2,7.5c0,0.1,0,0.2,0,0.3l0.6,0.9c0.6,0.9,1.2,1.8,1.8,2.7l0,0
	l0.4,0.6c0.1,0.1,0.1,0.1,0.2,0.2c0.1,0,0.2,0,0.4,0c0.2,0,0.5-0.2,0.8-0.3c0.3-0.2,0.6-0.4,1-0.6l0.6-0.4c1.2,1.8,2.4,3.6,3.6,5.4
	l-0.7,0.5h0c-0.8,0.5-1.6,0.9-2.3,1.1c-0.8,0.2-1.5,0.3-2.2,0.1c-0.7-0.1-1.4-0.4-2-0.9C10.3,16.9,10.3,16.9,10.2,16.9L10.2,16.9z
	 M9.4,12.1L9.4,12.1c-0.2-0.4-0.5-0.7-0.7-1.1C8,10.2,7.5,9.3,6.9,8.4l0,0c-0.2-0.3-0.3-0.7-0.2-1c0-0.4,0.2-0.8,0.4-1.1
	c0.2-0.2,0.4-0.5,0.6-0.7C8,5.4,8.2,5.2,8.5,5L6.5,2.1C6.1,2.4,5.7,2.8,5.4,3.2C5.1,3.6,4.9,4.1,4.8,4.5C4.7,5,4.7,5.5,4.8,6.1
	C5,6.7,5.3,7.3,5.7,7.9c1.4,2.1,2.8,4.2,4.2,6.3c0.4,0.6,0.9,1.1,1.3,1.5c0.5,0.4,0.9,0.6,1.4,0.7c0.5,0.1,0.9,0.1,1.4-0.1
	c0.5-0.1,1-0.3,1.5-0.6l-1.9-2.9c-0.3,0.2-0.6,0.3-0.8,0.4c-0.3,0.1-0.6,0.2-0.9,0.3c-0.4,0.1-0.8,0.1-1.2,0
	c-0.4-0.1-0.7-0.4-0.9-0.7l0,0v0L9.4,12.1L9.4,12.1z M7.3,17.8L7.3,17.8c0-0.1,0-0.3-0.1-0.4C7.2,17.3,7.1,17.1,7,17
	c-0.1-0.1-0.2-0.2-0.3-0.2c-0.1-0.1-0.2-0.1-0.4-0.1c-0.1,0-0.2,0-0.3,0c-0.1,0-0.1,0-0.2,0.1c0,0-0.1,0.1-0.1,0.2
	c0,0.1,0,0.2,0,0.3c0.1,0.1,0.1,0.2,0.2,0.2c0.1,0.1,0.2,0.2,0.3,0.2c0.1,0.1,0.3,0.1,0.5,0.1C7,17.8,7.1,17.8,7.3,17.8L7.3,17.8z"
	/>
</svg>
