<?xml version="1.0" encoding="utf-8"?>
<!-- Generator: Adobe Illustrator 22.0.1, SVG Export Plug-In . SVG Version: 6.00 Build 0)  -->
<svg version="1.1" id="Layer_1" xmlns="http://www.w3.org/2000/svg" xmlns:xlink="http://www.w3.org/1999/xlink" x="0px" y="0px"
	 viewBox="0 0 32 18.9" style="enable-background:new 0 0 32 18.9;" xml:space="preserve">
<style type="text/css">
	.st0{fill:url(#SVGID_1_);}
</style>
<linearGradient id="SVGID_1_" gradientUnits="userSpaceOnUse" x1="0" y1="9.449" x2="31.9771" y2="9.449">
	<stop  offset="0" style="stop-color:#FD3936"/>
	<stop  offset="0.5051" style="stop-color:#7D569D"/>
	<stop  offset="1" style="stop-color:#1B6BE8"/>
</linearGradient>
<path class="st0" d="M30.5,1.5h-4c0.1,0.3,0.3,0.6,0.4,0.9c0.2,0.3,0.5,0.6,0.8,0.9c0.4,0.3,0.8,0.5,1.3,0.7c0.4,0.2,1,0.3,1.5,0.3
	V1.5L30.5,1.5z M14.6,6H17c0.3,0,0.6,0.1,0.8,0.2c0.3,0.1,0.5,0.3,0.7,0.5c0.2,0.2,0.4,0.4,0.5,0.7c0.1,0.3,0.2,0.5,0.2,0.8
	c0,0.3-0.1,0.6-0.2,0.8c-0.1,0.3-0.3,0.5-0.5,0.7c-0.2,0.2-0.4,0.4-0.7,0.5c-0.3,0.1-0.5,0.2-0.8,0.2h-1.6v0.2h3.1v1.5h-3.1v0.9
	h-1.5v-0.2v-0.7h-1.1v-1.5H13h0.9V6L14.6,6L14.6,6L14.6,6L14.6,6L14.6,6z M15.3,9H17c0.1,0,0.2,0,0.3-0.1c0.1,0,0.2-0.1,0.3-0.2
	c0.1-0.1,0.1-0.2,0.2-0.3c0-0.1,0.1-0.2,0.1-0.3c0-0.1,0-0.2-0.1-0.3c0-0.1-0.1-0.2-0.2-0.3c-0.1-0.1-0.2-0.1-0.3-0.2
	c-0.1,0-0.2-0.1-0.3-0.1h-1.6V9L15.3,9z M5.4,10.2l-2.9,0V8.7h3.1v1.5L5.4,10.2L5.4,10.2z M29.4,10.2l-2.9,0V8.7h3.1v1.5L29.4,10.2
	L29.4,10.2z M16,2.4c0.9,0,1.9,0.2,2.7,0.5c0.9,0.4,1.6,0.9,2.3,1.5c1.3,1.3,2.1,3,2.1,5c0,0.9-0.2,1.9-0.5,2.7
	c-0.4,0.9-0.9,1.6-1.5,2.3c-0.6,0.6-1.4,1.2-2.3,1.5c-0.8,0.3-1.7,0.5-2.7,0.5c-0.9,0-1.9-0.2-2.7-0.5c-0.9-0.4-1.6-0.9-2.3-1.5
	c-0.6-0.6-1.2-1.4-1.5-2.3C9.2,11.3,9,10.4,9,9.4c0-0.9,0.2-1.9,0.5-2.7c0.4-0.9,0.9-1.6,1.5-2.3c0.6-0.6,1.4-1.2,2.3-1.5
	C14.1,2.6,15,2.4,16,2.4L16,2.4z M19.9,5.5c-0.5-0.5-1.1-0.9-1.8-1.2c-0.6-0.3-1.4-0.4-2.1-0.4c-0.7,0-1.5,0.1-2.1,0.4
	c-0.7,0.3-1.3,0.7-1.8,1.2c-0.5,0.5-0.9,1.1-1.2,1.8c-0.3,0.6-0.4,1.4-0.4,2.1c0,0.7,0.1,1.5,0.4,2.1c0.3,0.7,0.7,1.3,1.2,1.8
	c0.5,0.5,1.1,0.9,1.8,1.2c0.6,0.3,1.4,0.4,2.1,0.4c0.7,0,1.5-0.1,2.1-0.4c0.7-0.3,1.3-0.7,1.8-1.2c0.5-0.5,0.9-1.1,1.2-1.8
	c0.3-0.6,0.4-1.4,0.4-2.1c0-0.7-0.1-1.5-0.4-2.1C20.8,6.7,20.4,6.1,19.9,5.5L19.9,5.5z M25,1.5H7C6.9,2.1,6.6,2.6,6.4,3.1
	C6,3.6,5.7,4,5.2,4.4c-0.5,0.4-1,0.7-1.7,0.9c-0.6,0.2-1.3,0.4-2,0.4V13c0.7,0.1,1.4,0.2,2,0.4c0.6,0.2,1.2,0.5,1.7,0.9
	c0.5,0.4,0.9,0.8,1.2,1.4c0.3,0.5,0.5,1.1,0.7,1.7h17.9c0.1-0.6,0.4-1.2,0.7-1.7c0.3-0.5,0.7-1,1.2-1.4c0.5-0.4,1-0.7,1.7-0.9
	c0.6-0.2,1.3-0.4,2-0.4V5.7c-0.7-0.1-1.4-0.2-2-0.4c-0.6-0.2-1.2-0.5-1.7-0.9c-0.5-0.4-0.9-0.8-1.2-1.3C25.3,2.6,25.1,2.1,25,1.5
	L25,1.5z M5.5,1.5h-4v2.8C2,4.2,2.5,4.1,3,3.9c0.5-0.2,0.9-0.4,1.3-0.7C4.6,3,4.8,2.7,5,2.4C5.2,2.1,5.4,1.8,5.5,1.5L5.5,1.5z
	 M1.5,14.5v2.9h4c-0.1-0.4-0.3-0.7-0.4-1c-0.2-0.4-0.5-0.7-0.8-0.9C3.9,15.2,3.5,15,3,14.8C2.5,14.7,2,14.6,1.5,14.5L1.5,14.5z
	 M26.5,17.4h4v-2.9c-0.6,0.1-1.1,0.2-1.5,0.3c-0.5,0.2-0.9,0.4-1.3,0.7c-0.3,0.3-0.6,0.6-0.8,0.9C26.7,16.7,26.6,17,26.5,17.4
	L26.5,17.4z M0.7,0L32,0v18.9H0V0L0.7,0L0.7,0z"/>
</svg>
