<?xml version="1.0" encoding="utf-8"?>
<!-- Generator: Adobe Illustrator 22.0.1, SVG Export Plug-In . SVG Version: 6.00 Build 0)  -->
<svg version="1.1" id="Layer_1" xmlns="http://www.w3.org/2000/svg" xmlns:xlink="http://www.w3.org/1999/xlink" x="0px" y="0px"
	 viewBox="0 0 30.3 18.8" style="enable-background:new 0 0 30.3 18.8;" xml:space="preserve">
<style type="text/css">
	.st0{fill:url(#SVGID_1_);}
</style>
<linearGradient id="SVGID_1_" gradientUnits="userSpaceOnUse" x1="0" y1="9.4212" x2="30.2539" y2="9.4212">
	<stop  offset="0" style="stop-color:#FD3936"/>
	<stop  offset="0.5051" style="stop-color:#7D569D"/>
	<stop  offset="1" style="stop-color:#1B6BE8"/>
</linearGradient>
<path class="st0" d="M21,9.2h-4V11h4V9.2L21,9.2z M13.3,15.9h-4v1.4h4V15.9L13.3,15.9z M9.2,14.4h4v-1.8h-4V14.4L9.2,14.4z M21,12.5
	h-4v4.9h4V12.5L21,12.5z M28.8,12.2h-4v5.2h4V12.2L28.8,12.2z M24.7,10.7h4v-2h-4V10.7L24.7,10.7z M24.7,7.2h4V6h-4V7.2L24.7,7.2z
	 M24.7,4.5h4V4.3h-4V4.5L24.7,4.5z M5.5,14.2h-4v3.2h4V14.2L5.5,14.2z M0.7,12.7H7v6.1H0v-6.1H0.7L0.7,12.7z M18.6,0.1l4,1.2
	l-1.3,4.2l-1.4-0.5l0.5-1.6c-6.2,2.5-12.4,5-18.7,7.5L1.2,9.4l0.2-0.1L19.6,2l-1.5-0.4L18.5,0L18.6,0.1L18.6,0.1z M8.5,11.1h6.3v7.7
	h-7v-7.7H8.5L8.5,11.1z M24,2.9h6.3v16h-7v-16H24L24,2.9z M16.2,7.7h6.3v11.1h-7V7.7H16.2L16.2,7.7z"/>
</svg>
