<?xml version="1.0" encoding="utf-8"?>
<!-- Generator: Adobe Illustrator 22.0.1, SVG Export Plug-In . SVG Version: 6.00 Build 0)  -->
<svg version="1.1" id="Layer_1" xmlns="http://www.w3.org/2000/svg" xmlns:xlink="http://www.w3.org/1999/xlink" x="0px" y="0px"
	 viewBox="0 0 479 84.3" style="enable-background:new 0 0 479 84.3;" xml:space="preserve">
<style type="text/css">
	.st0{fill-rule:evenodd;clip-rule:evenodd;fill:#fff;}
	.st1{fill-rule:evenodd;clip-rule:evenodd;fill:#fff;}
	.st2{fill:#fff;}
</style>
<polygon class="st0" points="0,22.9 32.4,0 88.7,0 88.7,29.1 65.7,56.7 65.7,22.9 0,22.9 "/>
<polygon class="st1" points="88.7,61.4 56.3,84.3 0,84.3 0,55.1 22.9,27.6 22.9,61.4 88.7,61.4 "/>
<path class="st2" d="M124.7,22.9c2.2,0,4.1,0.8,5.6,2.3c1.5,1.5,2.3,3.4,2.3,5.6c0,2.2-0.8,4.1-2.3,5.6c-1.5,1.5-3.4,2.3-5.6,2.3
	c-1.9,0-3.5-0.6-5-1.7c-1.4-1.2-2.4-2.6-2.8-4.4h-1.7v6h-3.8V23h3.8v6h1.7c0.4-1.8,1.3-3.2,2.8-4.4
	C121.2,23.5,122.8,22.9,124.7,22.9L124.7,22.9z M124.7,35.2c1.2,0,2.2-0.4,3-1.2c0.8-0.8,1.2-1.8,1.2-3.2c0-1.3-0.4-2.4-1.2-3.2
	c-0.8-0.8-1.8-1.2-3-1.2c-1.2,0-2.2,0.4-3,1.2c-0.8,0.8-1.2,1.9-1.2,3.2c0,1.3,0.4,2.4,1.2,3.2C122.5,34.8,123.5,35.2,124.7,35.2
	L124.7,35.2z M152.1,38.6l-3.2-5c-0.3-0.4-0.5-0.6-0.7-0.8c-0.2-0.1-0.5-0.2-0.9-0.2H147v6h-3.8v-6h-0.4c-0.4,0-0.7,0.1-0.9,0.2
	c-0.2,0.1-0.5,0.4-0.7,0.8l-3.2,5h-4.3l3.9-6.1c0.6-0.9,1.1-1.5,1.7-1.8c-0.6-0.4-1.1-0.9-1.6-1.6l-3.8-6h4.3l3.1,4.9
	c0.2,0.4,0.5,0.6,0.7,0.8c0.2,0.1,0.5,0.2,0.9,0.2h0.3V23h3.8v5.9h0.3c0.4,0,0.7-0.1,0.9-0.2c0.2-0.1,0.5-0.4,0.7-0.8L152,23h4.3
	l-3.8,6c-0.5,0.7-1,1.2-1.6,1.6c0.5,0.3,1.1,0.9,1.6,1.8l3.9,6.1H152.1L152.1,38.6z M171.7,38.6h-3.8v-6h-4.8v6h-3.8V23h3.8v6h4.8
	v-6h3.8V38.6L171.7,38.6z M179.5,28.5h2.8c1.8,0,3.1,0.5,4,1.4c0.9,0.9,1.4,2.1,1.4,3.7c0,1.5-0.5,2.7-1.4,3.7
	c-0.9,0.9-2.2,1.4-4,1.4h-6.6V23h3.8V28.5L179.5,28.5z M192.8,38.6H189V23h3.8V38.6L192.8,38.6z M179.5,35h2.9
	c1.2,0,1.8-0.5,1.8-1.4c0-1-0.6-1.5-1.8-1.5h-2.9V35L179.5,35z M205.9,20.9c-0.7,0.7-1.6,1-2.6,1c-1,0-1.9-0.3-2.6-1
	c-0.7-0.7-1.1-1.5-1.1-2.6h2.4c0,0.4,0.1,0.7,0.4,0.9c0.3,0.2,0.6,0.4,0.9,0.4c0.4,0,0.7-0.1,0.9-0.4c0.3-0.2,0.4-0.5,0.4-0.9h2.4
	C207,19.4,206.6,20.2,205.9,20.9L205.9,20.9z M209.5,38.6h-3.8V30l-6.4,8.5h-2.3V23h3.8v8.5l6.4-8.5h2.3V38.6L209.5,38.6z M221.5,23
	h5.2c2.2,0,3.9,0.6,5.1,1.8s1.8,2.6,1.8,4.4c0,1.7-0.6,3.2-1.8,4.4s-2.9,1.8-5.1,1.8h-1.5v3.3h-3.8V23L221.5,23z M225.3,31.7h1.8
	c0.9,0,1.6-0.2,2.2-0.6c0.6-0.4,0.9-1.1,0.9-1.9c0-0.8-0.3-1.4-0.9-1.9c-0.6-0.5-1.3-0.7-2.2-0.7h-1.8V31.7L225.3,31.7z M240.4,29
	h6.3v3.6h-6.3V35h6.9v3.6h-10.6V23h10.6v3.6h-6.9V29L240.4,29z M254.7,26.6v12H251V23h10.3v3.6H254.7L254.7,26.6z M276.6,38.6h-3.8
	V30l-6.4,8.5h-2.3V23h3.8v8.5l6.4-8.5h2.3V38.6L276.6,38.6z M282.1,25.2c1.5-1.5,3.4-2.3,5.6-2.3c2.2,0,4.1,0.8,5.6,2.3
	c1.5,1.5,2.3,3.4,2.3,5.6c0,2.2-0.8,4.1-2.3,5.6c-1.5,1.5-3.4,2.3-5.6,2.3c-2.2,0-4.1-0.8-5.6-2.3c-1.5-1.5-2.3-3.4-2.3-5.6
	C279.8,28.6,280.6,26.8,282.1,25.2L282.1,25.2z M290.7,27.7c-0.8-0.8-1.8-1.2-3-1.2c-1.2,0-2.2,0.4-3,1.2c-0.8,0.8-1.2,1.9-1.2,3.2
	c0,1.3,0.4,2.4,1.2,3.2c0.8,0.8,1.8,1.2,3,1.2c1.2,0,2.2-0.4,3-1.2c0.8-0.8,1.2-1.8,1.2-3.2C291.9,29.5,291.5,28.5,290.7,27.7
	L290.7,27.7z M311.2,38.6h-3.8v-6h-4.8v6h-3.8V23h3.8v6h4.8v-6h3.8V38.6L311.2,38.6z M318.9,36.4l-0.8,2.2h-4.2l6.3-15.5h2.3
	l6.3,15.5h-4.2l-0.8-2.2H318.9L318.9,36.4z M321.3,29.8l-1.1,3h2.3L321.3,29.8L321.3,29.8z M338,29.9l-3.2,8.6h-4.2l6.3-15.5h2.3
	l6.3,15.5h-4.2L338,29.9L338,29.9z M352.1,28.5h2.8c1.8,0,3.1,0.5,4,1.4c0.9,0.9,1.4,2.1,1.4,3.7c0,1.5-0.5,2.7-1.4,3.7
	c-0.9,0.9-2.2,1.4-4,1.4h-6.6V23h3.8V28.5L352.1,28.5z M352.1,35h2.9c1.2,0,1.8-0.5,1.8-1.4c0-1-0.6-1.5-1.8-1.5h-2.9V35L352.1,35z
	 M375.9,38.6h-3.8v-6h-4.8v6h-3.8V23h3.8v6h4.8v-6h3.8V38.6L375.9,38.6z M383.7,28.5h2.8c1.8,0,3.1,0.5,4,1.4
	c0.9,0.9,1.4,2.1,1.4,3.7c0,1.5-0.5,2.7-1.4,3.7c-0.9,0.9-2.2,1.4-4,1.4h-6.6V23h3.8V28.5L383.7,28.5z M397,38.6h-3.8V23h3.8V38.6
	L397,38.6z M383.7,35h2.9c1.2,0,1.8-0.5,1.8-1.4c0-1-0.6-1.5-1.8-1.5h-2.9V35L383.7,35z M410.1,20.9c-0.7,0.7-1.6,1-2.6,1
	c-1,0-1.9-0.3-2.6-1c-0.7-0.7-1.1-1.5-1.1-2.6h2.4c0,0.4,0.1,0.7,0.4,0.9c0.3,0.2,0.6,0.4,0.9,0.4c0.4,0,0.7-0.1,0.9-0.4
	c0.3-0.2,0.4-0.5,0.4-0.9h2.4C411.1,19.4,410.8,20.2,410.1,20.9L410.1,20.9z M413.7,38.6H410V30l-6.4,8.5h-2.3V23h3.8v8.5l6.4-8.5
	h2.3V38.6L413.7,38.6z M125.6,66h-3.8v-2.9h-10.4V47.6h3.8v12h4.7v-12h3.8v12h1.9V66L125.6,66z M132.6,53.5h6.3v3.6h-6.3v2.4h6.9
	v3.6h-10.6V47.6h10.6v3.6h-6.9V53.5L132.6,53.5z M155.2,63.1h-3.8v-6h-4.8v6h-3.8V47.6h3.8v6h4.8v-6h3.8V63.1L155.2,63.1z
	 M165.9,51.1v12h-3.8v-12h-4v-3.6h11.7v3.6H165.9L165.9,51.1z M173,47.6h5.2c2.2,0,3.9,0.6,5.1,1.8c1.2,1.2,1.8,2.6,1.8,4.4
	c0,1.7-0.6,3.2-1.8,4.4c-1.2,1.2-2.9,1.8-5.1,1.8h-1.5v3.3H173V47.6L173,47.6z M176.8,56.2h1.8c0.9,0,1.6-0.2,2.2-0.6
	c0.6-0.4,0.9-1.1,0.9-1.9c0-0.8-0.3-1.4-0.9-1.9c-0.6-0.5-1.3-0.7-2.2-0.7h-1.8V56.2L176.8,56.2z M208.3,63.1h-3.8v-12h-4.6v12h-3.8
	V47.6h12.2V63.1L208.3,63.1z M213.5,49.7c1.5-1.5,3.4-2.3,5.6-2.3c2.2,0,4.1,0.8,5.6,2.3c1.5,1.5,2.3,3.4,2.3,5.6
	c0,2.2-0.8,4.1-2.3,5.6c-1.5,1.5-3.4,2.3-5.6,2.3c-2.2,0-4.1-0.8-5.6-2.3c-1.5-1.5-2.3-3.4-2.3-5.6C211.2,53.1,212,51.3,213.5,49.7
	L213.5,49.7z M222.1,52.2c-0.8-0.8-1.8-1.2-3-1.2c-1.2,0-2.2,0.4-3,1.2c-0.8,0.8-1.2,1.9-1.2,3.2c0,1.3,0.4,2.4,1.2,3.2
	c0.8,0.8,1.8,1.2,3,1.2c1.2,0,2.2-0.4,3-1.2c0.8-0.8,1.2-1.8,1.2-3.2C223.3,54,222.9,53,222.1,52.2L222.1,52.2z M244,66h-3.8v-2.9
	h-8.6V66h-3.8v-6.4h2.1l4.9-12h2.3l4.8,12h2.1V66L244,66z M236,54.5l-1.9,5.1h3.8L236,54.5L236,54.5z M262.3,66h-3.8v-2.9H250V66
	h-3.8v-6.4h2.1l4.9-12h2.3l4.8,12h2.1V66L262.3,66z M254.3,54.5l-1.9,5.1h3.8L254.3,54.5L254.3,54.5z M268.8,53.5h6.3v3.6h-6.3v2.4
	h6.9v3.6H265V47.6h10.6v3.6h-6.9V53.5L268.8,53.5z M278.4,47.6h5.2c2.2,0,3.9,0.6,5.1,1.8c1.2,1.2,1.8,2.6,1.8,4.4
	c0,1.7-0.6,3.2-1.8,4.4c-1.2,1.2-2.9,1.8-5.1,1.8h-1.5v3.3h-3.8V47.6L278.4,47.6z M282.2,56.2h1.8c0.9,0,1.6-0.2,2.2-0.6
	c0.6-0.4,0.9-1.1,0.9-1.9c0-0.8-0.3-1.4-0.9-1.9c-0.6-0.5-1.3-0.7-2.2-0.7h-1.8V56.2L282.2,56.2z M309,63.1l-3.2-5
	c-0.3-0.4-0.5-0.6-0.7-0.8c-0.2-0.1-0.5-0.2-0.9-0.2h-0.3v6h-3.8v-6h-0.4c-0.4,0-0.7,0.1-0.9,0.2c-0.2,0.1-0.5,0.4-0.7,0.8l-3.2,5
	h-4.3l3.9-6.1c0.6-0.9,1.1-1.5,1.7-1.8c-0.6-0.4-1.1-0.9-1.6-1.6l-3.8-6h4.3l3.1,4.9c0.2,0.4,0.5,0.6,0.7,0.8
	c0.2,0.1,0.5,0.2,0.9,0.2h0.3v-5.9h3.8v5.9h0.3c0.4,0,0.7-0.1,0.9-0.2c0.2-0.1,0.5-0.4,0.7-0.8l3.1-4.9h4.3l-3.8,6
	c-0.5,0.7-1,1.2-1.6,1.6c0.5,0.3,1.1,0.9,1.6,1.8l3.9,6.1H309L309,63.1z M325.7,63.1l-3.2-5c-0.3-0.4-0.5-0.6-0.7-0.8
	c-0.2-0.1-0.5-0.2-0.9-0.2H320v6h-3.8V47.6h3.8v5.9h0.8c0.4,0,0.7-0.1,0.9-0.2c0.2-0.1,0.5-0.4,0.7-0.8l3.1-4.9h4.2l-3.8,6
	c-0.5,0.7-1.1,1.2-1.6,1.6c0.5,0.3,1.1,0.9,1.6,1.8l3.9,6.1H325.7L325.7,63.1z M344.9,63.1h-3.8v-8.5l-6.4,8.5h-2.3V47.6h3.8v8.5
	l6.4-8.5h2.3V63.1L344.9,63.1z M363.8,47.4c2.2,0,4.1,0.8,5.6,2.3c1.5,1.5,2.3,3.4,2.3,5.6c0,2.2-0.8,4.1-2.3,5.6
	c-1.5,1.5-3.4,2.3-5.6,2.3c-2.3,0-4.3-0.9-5.9-2.6l2.5-2.3c0.9,0.8,2,1.3,3.4,1.3c0.9,0,1.6-0.2,2.3-0.7c0.7-0.5,1.2-1.1,1.4-1.9
	H363v-3.6h4.6c-0.3-0.8-0.8-1.4-1.5-1.9c-0.7-0.5-1.4-0.7-2.3-0.7c-1.3,0-2.5,0.4-3.4,1.3L358,50C359.6,48.3,361.5,47.4,363.8,47.4
	L363.8,47.4z M383.9,63.1l-3.2-5c-0.3-0.4-0.5-0.6-0.7-0.8c-0.2-0.1-0.5-0.2-0.9-0.2h-0.8v6h-3.8V47.6h3.8v5.9h0.8
	c0.4,0,0.7-0.1,0.9-0.2c0.2-0.1,0.5-0.4,0.7-0.8l3.1-4.9h4.2l-3.8,6c-0.5,0.7-1.1,1.2-1.6,1.6c0.5,0.3,1.1,0.9,1.6,1.8l3.9,6.1
	H383.9L383.9,63.1z M397,47.4c2.3,0,4.3,0.9,5.9,2.6l-2.4,2.3c-0.9-0.9-2.1-1.3-3.4-1.3c-1.2,0-2.2,0.4-3,1.2
	c-0.8,0.8-1.2,1.9-1.2,3.2c0,1.3,0.4,2.4,1.2,3.2s1.8,1.2,3,1.2c1.3,0,2.5-0.4,3.4-1.3l2.4,2.3c-1.6,1.7-3.6,2.6-5.9,2.6
	c-2.2,0-4.1-0.8-5.6-2.3c-1.5-1.5-2.3-3.4-2.3-5.6c0-2.2,0.8-4.1,2.3-5.6C392.9,48.2,394.8,47.4,397,47.4L397,47.4z M418.2,63.1
	h-3.8v-12h-4.6v12H406V47.6h12.2V63.1L418.2,63.1z M423,49.7c1.5-1.5,3.4-2.3,5.6-2.3c2.2,0,4.1,0.8,5.6,2.3
	c1.5,1.5,2.3,3.4,2.3,5.6c0,2.2-0.8,4.1-2.3,5.6c-1.5,1.5-3.4,2.3-5.6,2.3c-2.2,0-4.1-0.8-5.6-2.3c-1.5-1.5-2.3-3.4-2.3-5.6
	C420.7,53.1,421.4,51.3,423,49.7L423,49.7z M431.5,52.2c-0.8-0.8-1.8-1.2-3-1.2c-1.2,0-2.2,0.4-3,1.2c-0.8,0.8-1.2,1.9-1.2,3.2
	c0,1.3,0.4,2.4,1.2,3.2c0.8,0.8,1.8,1.2,3,1.2c1.2,0,2.2-0.4,3-1.2c0.8-0.8,1.2-1.8,1.2-3.2C432.7,54,432.3,53,431.5,52.2
	L431.5,52.2z M439.2,47.6h5.2c2.2,0,3.9,0.6,5.1,1.8c1.2,1.2,1.8,2.6,1.8,4.4c0,1.7-0.6,3.2-1.8,4.4c-1.2,1.2-2.9,1.8-5.1,1.8H443
	v3.3h-3.8V47.6L439.2,47.6z M443,56.2h1.8c0.9,0,1.6-0.2,2.2-0.6c0.6-0.4,0.9-1.1,0.9-1.9c0-0.8-0.3-1.4-0.9-1.9
	c-0.6-0.5-1.3-0.7-2.2-0.7H443V56.2L443,56.2z M460.3,51.1v12h-3.8v-12h-4v-3.6h11.7v3.6H460.3L460.3,51.1z M469.1,60.9l-0.8,2.2
	h-4.2l6.3-15.5h2.3l6.3,15.5h-4.2l-0.8-2.2H469.1L469.1,60.9z M471.5,54.4l-1.1,3h2.3L471.5,54.4L471.5,54.4z"/>
</svg>
