<?xml version="1.0" encoding="UTF-8" ?>
<!DOCTYPE svg PUBLIC "-//W3C//DTD SVG 1.1//EN" "http://www.w3.org/Graphics/SVG/1.1/DTD/svg11.dtd">
<svg width="38pt" height="51pt" viewBox="0 0 38 51" version="1.1" xmlns="http://www.w3.org/2000/svg">
<g id="#ff3c37ff">
<path fill="#ff3c37" opacity="1.00" d=" M 17.33 0.00 L 20.56 0.00 C 29.61 0.65 37.27 8.40 38.00 17.41 L 38.00 20.98 C 35.98 32.94 27.75 42.62 19.49 51.00 L 18.54 51.00 C 10.26 42.69 2.15 33.02 0.00 21.14 L 0.00 17.45 C 0.70 8.45 8.32 0.72 17.33 0.00 M 15.13 9.28 C 12.19 10.45 9.85 13.00 8.94 16.04 C 6.94 21.91 11.25 28.79 17.39 29.59 C 23.94 30.84 30.39 24.62 29.46 18.03 C 29.00 11.35 21.32 6.54 15.13 9.28 Z" />
</g>
</svg>
